<svg xmlns="http://www.w3.org/2000/svg" viewBox="0 0 100 100">
  <defs>
    <linearGradient id="puzzleGradient" x1="0%" y1="0%" x2="100%" y2="100%">
      <stop offset="0%" style="stop-color:#0ea5e9;stop-opacity:1" />
      <stop offset="50%" style="stop-color:#8b5cf6;stop-opacity:1" />
      <stop offset="100%" style="stop-color:#d946ef;stop-opacity:1" />
    </linearGradient>
  </defs>
  <!-- Puzzle piece shape -->
  <path fill="url(#puzzleGradient)" d="
    M 25 15 
    L 40 15 
    C 40 15 40 10 45 10 
    C 50 10 50 15 50 15 
    C 50 15 50 10 55 10 
    C 60 10 60 15 60 15 
    L 75 15 
    L 75 30 
    C 75 30 80 30 80 35 
    C 80 40 75 40 75 40 
    C 75 40 80 40 80 45 
    C 80 50 75 50 75 50 
    L 75 65 
    C 75 65 80 65 80 70 
    C 80 75 75 75 75 75 
    L 75 85 
    L 60 85 
    C 60 85 60 90 55 90 
    C 50 90 50 85 50 85 
    C 50 85 50 90 45 90 
    C 40 90 40 85 40 85 
    L 25 85 
    L 25 70 
    C 25 70 20 70 20 65 
    C 20 60 25 60 25 60 
    C 25 60 20 60 20 55 
    C 20 50 25 50 25 50 
    L 25 35 
    C 25 35 20 35 20 30 
    C 20 25 25 25 25 25 
    Z
  "/>
</svg>